<svg version="1.1" id="Layer_1" xmlns="http://www.w3.org/2000/svg" xmlns:xlink="http://www.w3.org/1999/xlink" x="0px" y="0px"
	 width="175" height="40" viewBox="0 0 512 512" enable-background="new 0 0 512 512" xml:space="preserve">
<path fill="#010100" opacity="1.000000" stroke="none" 
	d="
M290.000000,513.000000 
	C193.356796,513.000000 97.213585,513.000000 1.035192,513.000000 
	C1.035192,342.398438 1.035192,171.796860 1.035192,1.097646 
	C171.559891,1.097646 342.119843,1.097646 512.839905,1.097646 
	C512.839905,171.666550 512.839905,342.333252 512.839905,513.000000 
	C438.796844,513.000000 364.648407,513.000000 290.000000,513.000000 
M46.132484,392.917267 
	C39.497131,396.092926 33.866199,400.485962 29.207317,406.478577 
	C37.098225,407.824982 37.031685,407.778259 40.904037,402.262390 
	C42.998116,399.279541 45.364971,396.488190 48.020119,393.278961 
	C48.137745,392.933319 48.255371,392.587646 48.372997,392.242004 
	C47.859951,392.431824 47.346901,392.621643 46.132484,392.917267 
M89.815224,493.133209 
	C91.956146,493.397034 94.093735,493.858398 96.238495,493.894623 
	C122.544197,494.338654 144.212250,477.031647 149.718887,451.246918 
	C154.996002,426.536957 141.895386,401.357117 118.245674,391.307434 
	C109.241623,387.481262 99.830574,385.595825 89.207382,387.948242 
	C58.370247,392.563751 38.127811,422.994873 45.742371,453.290710 
	C51.045479,474.390045 69.681290,491.434906 89.815224,493.133209 
M479.950012,486.959839 
	C491.696838,477.157837 497.302032,464.543823 497.298950,449.309631 
	C497.284271,376.828003 497.416901,304.346069 497.227020,231.864960 
	C497.154175,204.059036 477.154053,183.713058 449.404694,183.507706 
	C401.919373,183.156265 354.429382,183.351471 306.941681,183.459290 
	C295.827728,183.484512 285.579132,186.493347 276.419098,194.274460 
	C265.260193,203.741241 259.075104,215.756058 259.051666,230.414490 
	C258.934296,303.852173 258.895264,377.290375 259.046906,450.727905 
	C259.099854,476.378113 279.540222,497.566071 305.132751,497.786713 
	C353.920654,498.207367 402.715424,498.029083 451.505951,497.801849 
	C461.875946,497.753571 471.407410,494.268372 479.950012,486.959839 
M138.919266,301.852997 
	C161.580902,301.862335 184.243042,301.785583 206.904007,301.913727 
	C220.209381,301.988983 230.684555,311.121826 233.158356,324.138763 
	C234.913559,333.374512 231.968491,341.142487 226.130066,347.991913 
	C234.634674,358.306976 237.835999,371.449402 226.874649,385.525208 
	C229.221863,390.976685 231.358551,395.939240 233.431168,401.687958 
	C234.697540,410.498596 231.541168,417.930389 226.094559,424.450531 
	C230.696762,432.372589 237.711609,427.532776 243.738663,428.999420 
	C243.738663,419.148712 243.738663,410.031494 243.898758,400.000092 
	C243.908249,344.353882 243.873184,288.707581 243.997406,233.061630 
	C244.009567,227.610153 244.387192,222.015152 245.640244,216.734772 
	C252.517792,187.752563 277.327209,168.471817 307.911987,168.288223 
	C335.734161,168.121231 363.558105,168.252045 391.381287,168.251602 
	C393.123779,168.251572 394.866241,168.251602 396.171600,168.251602 
	C396.171600,141.098755 396.171600,114.730186 396.171600,88.076454 
	C377.479797,88.076454 359.504242,88.078995 341.528687,88.075439 
	C331.617950,88.073479 329.697632,86.117935 329.694885,76.013756 
	C329.690002,58.186932 329.693512,40.360107 329.693512,22.533283 
	C329.693512,20.771290 329.693512,19.009295 329.693512,17.240902 
	C328.327118,17.137329 327.666687,17.043497 327.006256,17.043432 
	C267.028168,17.037462 207.050034,17.016178 147.072067,17.103905 
	C143.977036,17.108431 140.883392,18.049583 137.049332,18.664019 
	C122.902618,23.689251 115.634850,34.414822 115.630371,50.559265 
	C115.607666,132.545166 115.619598,214.531082 115.619392,296.516998 
	C115.619392,298.137146 115.619392,299.757294 115.619392,301.678436 
	C123.426750,301.678436 130.711456,301.678436 138.919266,301.852997 
M115.500008,317.924225 
	C106.841927,317.932343 98.180107,317.786102 89.526886,317.995331 
	C82.023453,318.176727 77.281845,324.494293 78.942078,331.640289 
	C80.181572,336.975342 84.626808,339.987122 91.493240,339.990387 
	C129.123154,340.008392 166.753082,339.999817 204.383011,339.995148 
	C205.547684,339.995026 206.728104,340.049316 207.874496,339.888306 
	C215.875900,338.764465 220.116287,330.073853 215.971558,323.267944 
	C213.455124,319.135864 209.582794,317.881653 204.913620,317.892151 
	C175.442551,317.958496 145.971237,317.924866 115.500008,317.924225 
M214.750381,359.771820 
	C211.276505,358.526337 207.817902,356.254425 204.326248,356.202484 
	C182.187988,355.873199 160.042419,356.034332 137.899261,356.034515 
	C122.249214,356.034668 106.599022,355.997437 90.949188,356.055145 
	C84.325562,356.079559 79.861710,359.462341 78.842888,364.963043 
	C77.796265,370.613800 79.022835,372.210602 84.704582,372.105042 
	C98.396111,371.850616 112.021004,371.895111 124.853088,377.778320 
	C125.845497,378.233368 127.142189,378.110931 128.297546,378.111664 
	C153.936966,378.127747 179.576569,378.175201 205.215775,378.098022 
	C215.839783,378.066040 220.545181,369.588684 214.750381,359.771820 
M163.790680,470.783417 
	C160.469238,470.342499 158.185471,471.352722 156.660065,474.665527 
	C155.355331,477.499054 153.413940,480.099976 151.438995,482.549683 
	C148.706116,485.939484 145.677719,489.091003 142.286224,492.893524 
	C163.666611,492.893524 184.132507,492.924255 204.598221,492.877991 
	C212.448654,492.860229 217.790787,488.139221 217.664139,481.543091 
	C217.539108,475.030060 212.549789,470.833252 204.681534,470.801910 
	C191.364700,470.748871 178.047516,470.784668 163.790680,470.783417 
M215.122314,398.442810 
	C212.212082,394.863342 208.252792,394.137665 203.924377,394.150879 
	C188.448395,394.198151 172.972153,394.168610 157.496017,394.168152 
	C154.741180,394.168060 151.986328,394.168121 149.251541,394.168121 
	C153.320297,401.338287 157.021408,408.113953 161.048157,414.690277 
	C161.670074,415.705933 163.782562,416.249023 165.212234,416.261444 
	C178.524033,416.376923 191.838120,416.422211 205.149780,416.297729 
	C215.653641,416.199463 220.269653,408.436127 215.122314,398.442810 
M187.499939,432.356323 
	C180.281372,432.356323 173.062820,432.356323 166.116516,432.356323 
	C165.758102,440.190277 165.441223,447.116455 165.113190,454.286072 
	C166.308105,454.436768 167.424194,454.697235 168.540894,454.699982 
	C180.677338,454.729675 192.814468,454.791382 204.950180,454.692780 
	C212.532822,454.631165 217.656143,450.018127 217.671082,443.555420 
	C217.685959,437.117279 212.635071,432.589447 204.957916,432.391632 
	C199.475128,432.250336 193.985870,432.359375 187.499939,432.356323 
M382.464294,68.222702 
	C370.518738,55.634789 358.573181,43.046875 346.000549,29.798176 
	C346.000549,44.442768 346.000549,57.993454 346.000549,71.778061 
	C359.057373,71.778061 371.901764,71.778061 385.494904,71.778061 
	C384.363129,70.434593 383.665161,69.606033 382.464294,68.222702 
M18.339874,454.250183 
	C21.038584,463.019287 22.037054,463.547241 32.099556,461.356964 
	C31.273207,457.500244 30.446716,453.642853 29.570257,449.552246 
	C25.642092,449.552246 21.892197,449.552246 17.784529,449.552246 
	C17.910820,450.974152 18.023170,452.239105 18.339874,454.250183 
M19.760817,423.003265 
	C18.764250,426.464691 17.767685,429.926117 16.542786,434.180603 
	C20.557255,434.180603 23.831739,434.305786 27.085012,434.098267 
	C27.969954,434.041840 29.370348,433.113708 29.540453,432.361023 
	C30.256445,429.192841 30.596319,425.939697 31.119005,422.412811 
	C27.246517,422.412811 23.806719,422.412811 19.760817,423.003265 
M44.600563,483.907745 
	C38.654270,476.145203 38.654270,476.145203 31.248871,478.209503 
	C36.606594,481.957520 41.308495,485.246765 46.010395,488.536011 
	C46.360916,488.078217 46.711433,487.620422 47.061951,487.162598 
	C46.395199,486.262970 45.728447,485.363342 44.600563,483.907745 
z"/>
<path fill="#FED9A9" opacity="1.000000" stroke="none" 
	d="
M233.495239,400.901794 
	C231.358551,395.939240 229.221863,390.976685 226.874649,385.525208 
	C237.835999,371.449402 234.634674,358.306976 226.130066,347.991913 
	C231.968491,341.142487 234.913559,333.374512 233.158356,324.138763 
	C230.684555,311.121826 220.209381,301.988983 206.904007,301.913727 
	C184.243042,301.785583 161.580902,301.862335 138.461609,301.317688 
	C137.991852,209.368683 137.981277,117.954964 137.960266,26.541246 
	C137.959656,23.879040 137.848633,21.216856 137.789093,18.554665 
	C140.883392,18.049583 143.977036,17.108431 147.072067,17.103905 
	C207.050034,17.016178 267.028168,17.037462 327.006256,17.043432 
	C327.666687,17.043497 328.327118,17.137329 329.693512,17.240902 
	C329.693512,19.009295 329.693512,20.771290 329.693512,22.533283 
	C329.693512,40.360107 329.690002,58.186932 329.694885,76.013756 
	C329.697632,86.117935 331.617950,88.073479 341.528687,88.075439 
	C359.504242,88.078995 377.479797,88.076454 396.171600,88.076454 
	C396.171600,114.730186 396.171600,141.098755 396.171600,168.251602 
	C394.866241,168.251602 393.123779,168.251572 391.381287,168.251602 
	C363.558105,168.252045 335.734161,168.121231 307.911987,168.288223 
	C277.327209,168.471817 252.517792,187.752563 245.640244,216.734772 
	C244.387192,222.015152 244.009567,227.610153 243.997406,233.061630 
	C243.873184,288.707581 243.908249,344.353882 243.387360,400.463409 
	C239.749069,400.918396 236.622147,400.910095 233.495239,400.901794 
M212.084503,228.379822 
	C207.413742,225.898285 202.805435,223.288498 198.053421,220.973770 
	C193.885513,218.943573 189.424118,217.494690 185.333282,215.333084 
	C180.636169,212.851151 179.306107,208.475525 180.047867,203.422104 
	C180.768311,198.513809 183.917603,195.950165 188.544632,194.812073 
	C195.856262,193.013657 202.696579,194.216217 209.266205,197.735016 
	C212.755844,199.604141 215.759338,198.822449 217.814056,195.411972 
	C219.922684,191.912048 219.510025,188.557953 216.092361,186.211197 
	C213.947586,184.738480 211.414398,183.711441 208.920547,182.898285 
	C205.975418,181.937958 202.884766,181.423981 199.955093,180.739380 
	C199.765976,178.280014 199.821075,176.091888 199.388474,174.004883 
	C198.607025,170.235046 195.950027,168.225616 192.232956,168.345505 
	C188.755066,168.457703 186.308548,170.494797 185.602737,174.053482 
	C185.283096,175.665192 185.699509,177.470200 185.181335,178.981583 
	C184.688889,180.418045 183.673721,182.317627 182.440765,182.756744 
	C172.198914,186.404434 166.770798,193.589661 166.030136,204.320480 
	C165.230667,215.903244 170.147247,224.233994 180.702759,229.118576 
	C183.860413,230.579788 187.183075,231.684448 190.340408,233.146286 
	C194.243118,234.953232 198.323227,236.567123 201.837830,238.977295 
	C207.003311,242.519638 208.840500,249.852509 206.750732,256.598389 
	C205.014114,262.204285 200.786499,264.621399 195.183792,265.340881 
	C187.388641,266.341919 180.683594,264.536499 175.403336,258.436737 
	C173.022705,255.686584 170.357788,253.945038 166.813568,256.613922 
	C163.643204,259.001312 162.658875,263.426086 165.121582,266.848083 
	C166.922333,269.350281 169.232864,271.801544 171.867996,273.314209 
	C175.968552,275.668121 180.537781,277.205566 185.012695,279.133972 
	C185.828049,288.128143 187.457642,290.853668 192.239197,291.025787 
	C197.101379,291.200775 198.818115,288.499054 200.195923,278.503906 
	C222.482468,270.924255 228.929306,245.166183 212.084503,228.379822 
M355.028900,149.379639 
	C354.116425,143.527344 352.059296,141.438797 346.229340,141.429443 
	C304.246307,141.362091 262.263062,141.365891 220.279968,141.421234 
	C214.653015,141.428650 211.085449,144.720840 211.244797,149.240158 
	C211.398849,153.608887 214.812180,156.575851 220.240540,156.582260 
	C262.223633,156.631821 304.206848,156.610931 346.190002,156.609467 
	C350.685516,156.609314 353.919830,154.871124 355.028900,149.379639 
M158.186722,107.826363 
	C155.928726,114.733315 158.810669,119.045502 165.969925,119.053352 
	C209.616760,119.101234 253.263687,119.089233 296.910583,119.062782 
	C302.584900,119.059341 306.079132,115.995796 305.951630,111.388046 
	C305.827820,106.915268 302.483856,104.054054 297.042969,104.050529 
	C253.396088,104.022224 209.748947,103.983269 166.102859,104.170135 
	C163.610519,104.180801 161.126511,106.140167 158.186722,107.826363 
M184.280350,156.605301 
	C185.111420,156.605057 185.943161,156.626602 186.773453,156.601089 
	C193.077393,156.407394 196.263290,153.727661 196.116989,148.754242 
	C195.977722,144.019760 192.854919,141.487869 186.765396,141.416489 
	C179.785446,141.334656 172.801590,141.296738 165.823486,141.438797 
	C160.506653,141.547028 157.103424,144.673492 157.123077,149.037231 
	C157.142761,153.405685 160.561569,156.459427 165.882278,156.570786 
	C171.697266,156.692520 177.516647,156.602829 184.280350,156.605301 
M353.084534,116.574280 
	C357.074554,109.698395 354.163177,104.191803 346.373535,104.052689 
	C340.557220,103.948814 334.734711,103.922340 328.920319,104.071625 
	C324.288818,104.190544 321.155914,107.265320 321.048248,111.398338 
	C320.936371,115.694290 324.201324,118.939018 329.071716,119.042831 
	C335.053375,119.170334 341.045837,119.223457 347.020691,118.985138 
	C348.870850,118.911339 350.678894,117.782021 353.084534,116.574280 
z"/>
<path fill="#7AC990" opacity="1.000000" stroke="none" 
	d="
M277.069550,194.102402 
	C285.579132,186.493347 295.827728,183.484512 306.941681,183.459290 
	C354.429382,183.351471 401.919373,183.156265 449.404694,183.507706 
	C477.154053,183.713058 497.154175,204.059036 497.227020,231.864960 
	C497.416901,304.346069 497.284271,376.828003 497.298950,449.309631 
	C497.302032,464.543823 491.696838,477.157837 479.152130,487.028442 
	C427.301880,487.072632 376.247284,487.267761 325.199738,486.759674 
	C318.442139,486.692444 311.720184,483.044617 305.448120,480.984406 
	C311.578766,480.899811 317.245911,480.997040 322.906494,480.846802 
	C332.332062,480.596680 338.895172,474.028839 339.021118,464.690247 
	C339.133423,456.361877 339.139008,448.029236 339.014465,439.701172 
	C338.877106,430.516693 333.142059,424.111938 323.984680,423.657684 
	C315.012756,423.212646 305.985962,423.198914 297.013428,423.627808 
	C287.600342,424.077820 282.006927,430.477325 281.843903,440.049072 
	C281.741821,446.043365 281.745575,452.039520 281.390533,457.911621 
	C275.819580,450.110260 274.102509,441.338776 274.086823,432.335693 
	C273.967773,363.953339 274.058350,295.570648 273.978424,227.188156 
	C273.965393,216.038498 273.892120,204.931717 277.069550,194.102402 
M359.365204,271.811096 
	C360.485016,277.199341 364.085602,278.877014 369.230591,278.861267 
	C395.376007,278.781189 421.521820,278.862823 447.667389,278.810852 
	C463.661743,278.779053 474.262848,268.373474 474.595581,252.325134 
	C474.771576,243.835617 474.773621,235.336334 474.594269,226.846954 
	C474.259460,210.996841 463.915497,200.810272 448.028076,200.606308 
	C439.036774,200.490875 430.042786,200.580551 421.050018,200.580612 
	C383.580139,200.580795 346.110046,200.513901 308.640442,200.614456 
	C292.294037,200.658310 281.972717,210.958237 281.851929,226.996674 
	C281.786682,235.655869 281.755096,244.317078 281.862244,252.975449 
	C282.048218,268.004150 292.697784,278.607880 307.797455,278.805542 
	C315.956177,278.912354 324.117615,278.858490 332.277496,278.814301 
	C338.500732,278.780579 340.364441,277.297729 343.068085,271.168274 
	C348.404907,271.179291 353.741730,271.190277 359.365204,271.811096 
M472.151398,470.452667 
	C473.173065,467.159180 475.052124,463.873291 475.081329,460.570984 
	C475.324280,433.110138 475.378632,405.644958 475.148865,378.183960 
	C475.066925,368.393097 467.934753,360.714478 458.119110,359.823456 
	C450.700256,359.149933 443.130371,359.126556 435.707489,359.755432 
	C425.327057,360.634918 418.128784,368.815369 418.079559,379.270020 
	C417.954193,405.901245 417.936096,432.534027 418.079987,459.165039 
	C418.145844,471.351288 427.399963,480.462769 439.641846,480.845795 
	C443.799042,480.975861 447.963959,480.837738 452.124756,480.880737 
	C460.351105,480.965759 467.015106,477.948425 472.151398,470.452667 
M398.217499,479.027649 
	C404.377014,475.605255 406.963287,470.234741 406.909668,463.339142 
	C406.850128,455.680420 406.969940,448.019989 406.877289,440.361908 
	C406.757477,430.460236 400.763336,423.938721 390.915894,423.539734 
	C382.439026,423.196259 373.926605,423.204163 365.449097,423.540588 
	C355.845642,423.921722 349.947021,429.785065 349.578064,439.335938 
	C349.244080,447.980255 349.254608,456.658295 349.593628,465.302643 
	C349.956238,474.549316 356.506866,480.678497 365.777588,480.845795 
	C373.767181,480.989960 381.764282,481.000427 389.751892,480.809937 
	C392.349457,480.747986 394.927460,479.865570 398.217499,479.027649 
M355.992523,413.653473 
	C359.259949,414.709503 362.488464,416.501587 365.802429,416.676697 
	C374.104523,417.115326 382.449310,416.982117 390.769623,416.778717 
	C400.146881,416.549500 406.656097,409.933960 406.857300,400.532501 
	C407.021149,392.876678 406.923370,385.214539 406.891205,377.555420 
	C406.841949,365.829865 400.832367,359.586212 389.166870,359.349121 
	C381.677216,359.196930 374.179352,359.200409 366.689758,359.355133 
	C355.908081,359.577942 349.712494,365.768829 349.504242,376.535034 
	C349.352936,384.357849 349.474579,392.185974 349.474884,400.011719 
	C349.475067,405.294830 351.242920,409.778107 355.992523,413.653473 
M330.851196,361.386108 
	C329.939789,360.980408 329.032013,360.230927 328.116394,360.221191 
	C316.503967,360.097809 304.846619,359.460114 293.294159,360.276337 
	C286.674438,360.744049 282.029694,367.733704 281.902374,374.762512 
	C281.745636,383.417999 281.751862,392.079865 281.879395,400.736176 
	C282.014923,409.937317 288.318756,416.487976 297.531982,416.754120 
	C306.182953,417.003967 314.854431,417.029755 323.503113,416.741272 
	C332.625000,416.437042 338.909088,409.717377 339.025665,400.549835 
	C339.127258,392.558777 338.954651,384.563965 339.081543,376.573608 
	C339.182312,370.227081 336.878479,365.256378 330.851196,361.386108 
M364.814392,349.273376 
	C373.462250,349.280365 382.114319,349.459290 390.756836,349.248322 
	C400.335541,349.014496 406.628510,342.696228 406.846283,333.163940 
	C407.036194,324.852600 407.022919,316.530609 406.849060,308.218536 
	C406.653015,298.845764 400.009674,292.222992 390.722229,292.069977 
	C382.408783,291.932983 374.089996,291.947052 365.775970,292.065002 
	C356.544556,292.195923 349.932800,298.405823 349.628784,307.563690 
	C349.341980,316.202332 349.379791,324.862335 349.604980,333.504364 
	C349.835144,342.337097 355.028046,347.823944 364.814392,349.273376 
M310.499969,349.317535 
	C315.165466,349.284882 319.843933,349.461273 324.493622,349.173340 
	C332.617828,348.670258 338.798218,342.301422 338.981506,334.136993 
	C339.179688,325.308533 339.160492,316.469849 338.995697,307.640137 
	C338.835876,299.077423 332.378754,292.370636 323.848938,292.122284 
	C314.857208,291.860535 305.845032,291.850464 296.854431,292.132477 
	C288.558533,292.392700 282.099365,299.027954 281.919586,307.294312 
	C281.723938,316.289337 281.717285,325.295776 281.927887,334.290192 
	C282.118958,342.450684 288.316650,348.701202 296.507263,349.189789 
	C300.825958,349.447449 305.169495,349.288544 310.499969,349.317535 
M418.036865,307.894714 
	C418.037079,316.377228 417.925842,324.861633 418.067749,333.341766 
	C418.220490,342.470551 424.653931,349.036743 433.783478,349.258270 
	C442.261047,349.464020 450.750183,349.445251 459.229156,349.273682 
	C468.827789,349.079376 475.073151,342.817200 475.256378,333.237885 
	C475.415375,324.924744 475.405823,316.604034 475.255951,308.290527 
	C475.080292,298.549011 468.589691,292.179474 458.830505,292.059814 
	C451.014465,291.963959 443.196106,292.006805 435.379089,292.047485 
	C425.490570,292.098999 419.772980,297.063202 418.036865,307.894714 
z"/>
<path fill="#4CB968" opacity="1.000000" stroke="none" 
	d="
M276.744324,194.188431 
	C273.892120,204.931717 273.965393,216.038498 273.978424,227.188156 
	C274.058350,295.570648 273.967773,363.953339 274.086823,432.335693 
	C274.102509,441.338776 275.819580,450.110260 281.476440,458.357147 
	C281.863251,460.252716 281.841736,461.579590 281.844177,462.906372 
	C281.865967,474.738953 288.061279,480.860870 300.020355,480.897095 
	C301.674286,480.902100 303.327942,481.000092 304.981720,481.055054 
	C311.720184,483.044617 318.442139,486.692444 325.199738,486.759674 
	C376.247284,487.267761 427.301880,487.072632 478.844330,487.145172 
	C471.407410,494.268372 461.875946,497.753571 451.505951,497.801849 
	C402.715424,498.029083 353.920654,498.207367 305.132751,497.786713 
	C279.540222,497.566071 259.099854,476.378113 259.046906,450.727905 
	C258.895264,377.290375 258.934296,303.852173 259.051666,230.414490 
	C259.075104,215.756058 265.260193,203.741241 276.744324,194.188431 
z"/>
<path fill="#FEC478" opacity="1.000000" stroke="none" 
	d="
M137.419220,18.609341 
	C137.848633,21.216856 137.959656,23.879040 137.960266,26.541246 
	C137.981277,117.954964 137.991852,209.368683 138.000046,301.230408 
	C130.711456,301.678436 123.426750,301.678436 115.619392,301.678436 
	C115.619392,299.757294 115.619392,298.137146 115.619392,296.516998 
	C115.619598,214.531082 115.607666,132.545166 115.630371,50.559265 
	C115.634850,34.414822 122.902618,23.689251 137.419220,18.609341 
z"/>
<path fill="#EB8500" opacity="1.000000" stroke="none" 
	d="
M90.014725,388.079224 
	C99.830574,385.595825 109.241623,387.481262 118.245674,391.307434 
	C141.895386,401.357117 154.996002,426.536957 149.718887,451.246918 
	C144.212250,477.031647 122.544197,494.338654 96.238495,493.894623 
	C94.093735,493.858398 91.956146,493.397034 89.339539,492.683350 
	C83.993378,487.292938 78.440529,482.854950 74.368896,477.326111 
	C55.342491,451.490173 59.559097,412.187225 86.379852,391.981262 
	C87.777885,390.928009 88.811470,389.391022 90.014725,388.079224 
M105.555450,403.106903 
	C99.869598,397.057983 93.851822,398.393188 91.408913,406.173462 
	C91.055763,407.298218 90.357819,408.685089 89.412048,409.194946 
	C81.618103,413.396332 79.131233,420.119232 79.965828,428.462738 
	C80.767181,436.473907 86.123863,440.580322 92.965622,443.381622 
	C95.882706,444.575989 99.273430,445.293640 101.493507,447.290253 
	C103.200554,448.825531 104.312706,452.163727 103.958351,454.429504 
	C103.739243,455.830505 100.200645,457.740509 98.290665,457.595734 
	C95.745071,457.402710 92.995880,455.841248 90.943985,454.134430 
	C87.815109,451.531738 84.791374,450.681396 81.528984,453.213562 
	C78.232758,455.771942 77.121948,459.638092 79.455025,462.957947 
	C81.540771,465.925873 85.062340,467.870209 87.884590,470.341309 
	C89.258720,471.544525 91.006844,472.697418 91.668236,474.261108 
	C93.145981,477.754944 95.534462,479.817078 99.193451,479.725281 
	C102.849007,479.633545 105.262619,477.510040 106.427452,473.890045 
	C106.832123,472.632477 107.740761,471.125183 108.841942,470.569275 
	C117.053642,466.423798 119.890320,459.332184 119.633972,450.776398 
	C119.360115,441.636230 114.337051,435.663513 106.039192,432.246643 
	C103.427422,431.171173 100.591537,430.422424 98.295578,428.875183 
	C96.798882,427.866516 96.091042,425.687317 95.029808,424.032501 
	C96.685234,423.206421 98.383560,421.627350 99.986717,421.718689 
	C102.887215,421.883942 105.738739,423.017426 108.596375,423.799072 
	C112.269226,424.803741 115.221565,423.837402 117.134789,420.508270 
	C119.024399,417.220215 118.658310,413.981598 115.798454,411.484009 
	C114.219002,410.104553 111.953598,409.534210 110.269844,408.243683 
	C108.633690,406.989624 107.345528,405.281555 105.555450,403.106903 
z"/>
<path fill="#FEA733" opacity="1.000000" stroke="none" 
	d="
M116.000015,317.924225 
	C145.971237,317.924866 175.442551,317.958496 204.913620,317.892151 
	C209.582794,317.881653 213.455124,319.135864 215.971558,323.267944 
	C220.116287,330.073853 215.875900,338.764465 207.874496,339.888306 
	C206.728104,340.049316 205.547684,339.995026 204.383011,339.995148 
	C166.753082,339.999817 129.123154,340.008392 91.493240,339.990387 
	C84.626808,339.987122 80.181572,336.975342 78.942078,331.640289 
	C77.281845,324.494293 82.023453,318.176727 89.526886,317.995331 
	C98.180107,317.786102 106.841927,317.932343 116.000015,317.924225 
z"/>
<path fill="#FD9711" opacity="1.000000" stroke="none" 
	d="
M214.983719,360.071838 
	C220.545181,369.588684 215.839783,378.066040 205.215775,378.098022 
	C179.576569,378.175201 153.936966,378.127747 128.297546,378.111664 
	C127.142189,378.110931 125.845497,378.233368 124.853088,377.778320 
	C112.021004,371.895111 98.396111,371.850616 84.704582,372.105042 
	C79.022835,372.210602 77.796265,370.613800 78.842888,364.963043 
	C79.861710,359.462341 84.325562,356.079559 90.949188,356.055145 
	C106.599022,355.997437 122.249214,356.034668 137.899261,356.034515 
	C160.042419,356.034332 182.187988,355.873199 204.326248,356.202484 
	C207.817902,356.254425 211.276505,358.526337 214.983719,360.071838 
z"/>
<path fill="#CA7300" opacity="1.000000" stroke="none" 
	d="
M89.611053,388.013733 
	C88.811470,389.391022 87.777885,390.928009 86.379852,391.981262 
	C59.559097,412.187225 55.342491,451.490173 74.368896,477.326111 
	C78.440529,482.854950 83.993378,487.292938 88.942947,492.554535 
	C69.681290,491.434906 51.045479,474.390045 45.742371,453.290710 
	C38.127811,422.994873 58.370247,392.563751 89.611053,388.013733 
z"/>
<path fill="#A76000" opacity="1.000000" stroke="none" 
	d="
M164.260574,470.783264 
	C178.047516,470.784668 191.364700,470.748871 204.681534,470.801910 
	C212.549789,470.833252 217.539108,475.030060 217.664139,481.543091 
	C217.790787,488.139221 212.448654,492.860229 204.598221,492.877991 
	C184.132507,492.924255 163.666611,492.893524 142.286224,492.893524 
	C145.677719,489.091003 148.706116,485.939484 151.438995,482.549683 
	C153.413940,480.099976 155.355331,477.499054 156.660065,474.665527 
	C158.185471,471.352722 160.469238,470.342499 164.260574,470.783264 
z"/>
<path fill="#EA8500" opacity="1.000000" stroke="none" 
	d="
M215.362213,398.732422 
	C220.269653,408.436127 215.653641,416.199463 205.149780,416.297729 
	C191.838120,416.422211 178.524033,416.376923 165.212234,416.261444 
	C163.782562,416.249023 161.670074,415.705933 161.048157,414.690277 
	C157.021408,408.113953 153.320297,401.338287 149.251541,394.168121 
	C151.986328,394.168121 154.741180,394.168060 157.496017,394.168152 
	C172.972153,394.168610 188.448395,394.198151 203.924377,394.150879 
	C208.252792,394.137665 212.212082,394.863342 215.362213,398.732422 
z"/>
<path fill="#C57000" opacity="1.000000" stroke="none" 
	d="
M187.999725,432.356506 
	C193.985870,432.359375 199.475128,432.250336 204.957916,432.391632 
	C212.635071,432.589447 217.685959,437.117279 217.671082,443.555420 
	C217.656143,450.018127 212.532822,454.631165 204.950180,454.692780 
	C192.814468,454.791382 180.677338,454.729675 168.540894,454.699982 
	C167.424194,454.697235 166.308105,454.436768 165.113190,454.286072 
	C165.441223,447.116455 165.758102,440.190277 166.116516,432.356323 
	C173.062820,432.356323 180.281372,432.356323 187.999725,432.356506 
z"/>
<path fill="#FDB454" opacity="1.000000" stroke="none" 
	d="
M382.715729,68.500092 
	C383.665161,69.606033 384.363129,70.434593 385.494904,71.778061 
	C371.901764,71.778061 359.057373,71.778061 346.000549,71.778061 
	C346.000549,57.993454 346.000549,44.442768 346.000549,29.798176 
	C358.573181,43.046875 370.518738,55.634789 382.715729,68.500092 
z"/>
<path fill="#F0BE7E" opacity="1.000000" stroke="none" 
	d="
M233.463196,401.294861 
	C236.622147,400.910095 239.749069,400.918396 243.307312,400.920502 
	C243.738663,410.031494 243.738663,419.148712 243.738663,428.999420 
	C237.711609,427.532776 230.696762,432.372589 226.094559,424.450531 
	C231.541168,417.930389 234.697540,410.498596 233.463196,401.294861 
z"/>
<path fill="#C26F00" opacity="1.000000" stroke="none" 
	d="
M18.237698,453.877136 
	C18.023170,452.239105 17.910820,450.974152 17.784529,449.552246 
	C21.892197,449.552246 25.642092,449.552246 29.570257,449.552246 
	C30.446716,453.642853 31.273207,457.500244 32.099556,461.356964 
	C22.037054,463.547241 21.038584,463.019287 18.237698,453.877136 
z"/>
<path fill="#C36F00" opacity="1.000000" stroke="none" 
	d="
M20.063869,422.708038 
	C23.806719,422.412811 27.246517,422.412811 31.119005,422.412811 
	C30.596319,425.939697 30.256445,429.192841 29.540453,432.361023 
	C29.370348,433.113708 27.969954,434.041840 27.085012,434.098267 
	C23.831739,434.305786 20.557255,434.180603 16.542786,434.180603 
	C17.767685,429.926117 18.764250,426.464691 20.063869,422.708038 
z"/>
<path fill="#C36F00" opacity="1.000000" stroke="none" 
	d="
M47.608761,393.610443 
	C45.364971,396.488190 42.998116,399.279541 40.904037,402.262390 
	C37.031685,407.778259 37.098225,407.824982 29.207317,406.478577 
	C33.866199,400.485962 39.497131,396.092926 46.670685,393.070129 
	C47.342175,393.352142 47.475464,393.481293 47.608761,393.610443 
z"/>
<path fill="#BD6B00" opacity="1.000000" stroke="none" 
	d="
M44.831131,484.185730 
	C45.728447,485.363342 46.395199,486.262970 47.061951,487.162598 
	C46.711433,487.620422 46.360916,488.078217 46.010395,488.536011 
	C41.308495,485.246765 36.606594,481.957520 31.248871,478.209503 
	C38.654270,476.145203 38.654270,476.145203 44.831131,484.185730 
z"/>
<path fill="#C36F00" opacity="1.000000" stroke="none" 
	d="
M47.021370,393.017212 
	C47.346901,392.621643 47.859951,392.431824 48.372997,392.242004 
	C48.255371,392.587646 48.137745,392.933319 47.814438,393.444702 
	C47.475464,393.481293 47.342175,393.352142 47.021370,393.017212 
z"/>
<path fill="#050403" opacity="1.000000" stroke="none" 
	d="
M212.352661,228.620239 
	C228.929306,245.166183 222.482468,270.924255 200.195923,278.503906 
	C198.818115,288.499054 197.101379,291.200775 192.239197,291.025787 
	C187.457642,290.853668 185.828049,288.128143 185.012695,279.133972 
	C180.537781,277.205566 175.968552,275.668121 171.867996,273.314209 
	C169.232864,271.801544 166.922333,269.350281 165.121582,266.848083 
	C162.658875,263.426086 163.643204,259.001312 166.813568,256.613922 
	C170.357788,253.945038 173.022705,255.686584 175.403336,258.436737 
	C180.683594,264.536499 187.388641,266.341919 195.183792,265.340881 
	C200.786499,264.621399 205.014114,262.204285 206.750732,256.598389 
	C208.840500,249.852509 207.003311,242.519638 201.837830,238.977295 
	C198.323227,236.567123 194.243118,234.953232 190.340408,233.146286 
	C187.183075,231.684448 183.860413,230.579788 180.702759,229.118576 
	C170.147247,224.233994 165.230667,215.903244 166.030136,204.320480 
	C166.770798,193.589661 172.198914,186.404434 182.440765,182.756744 
	C183.673721,182.317627 184.688889,180.418045 185.181335,178.981583 
	C185.699509,177.470200 185.283096,175.665192 185.602737,174.053482 
	C186.308548,170.494797 188.755066,168.457703 192.232956,168.345505 
	C195.950027,168.225616 198.607025,170.235046 199.388474,174.004883 
	C199.821075,176.091888 199.765976,178.280014 199.955093,180.739380 
	C202.884766,181.423981 205.975418,181.937958 208.920547,182.898285 
	C211.414398,183.711441 213.947586,184.738480 216.092361,186.211197 
	C219.510025,188.557953 219.922684,191.912048 217.814056,195.411972 
	C215.759338,198.822449 212.755844,199.604141 209.266205,197.735016 
	C202.696579,194.216217 195.856262,193.013657 188.544632,194.812073 
	C183.917603,195.950165 180.768311,198.513809 180.047867,203.422104 
	C179.306107,208.475525 180.636169,212.851151 185.333282,215.333084 
	C189.424118,217.494690 193.885513,218.943573 198.053421,220.973770 
	C202.805435,223.288498 207.413742,225.898285 212.352661,228.620239 
z"/>
<path fill="#0E0C0A" opacity="1.000000" stroke="none" 
	d="
M355.005524,149.776550 
	C353.919830,154.871124 350.685516,156.609314 346.190002,156.609467 
	C304.206848,156.610931 262.223633,156.631821 220.240540,156.582260 
	C214.812180,156.575851 211.398849,153.608887 211.244797,149.240158 
	C211.085449,144.720840 214.653015,141.428650 220.279968,141.421234 
	C262.263062,141.365891 304.246307,141.362091 346.229340,141.429443 
	C352.059296,141.438797 354.116425,143.527344 355.005524,149.776550 
z"/>
<path fill="#020201" opacity="1.000000" stroke="none" 
	d="
M158.412674,107.509476 
	C161.126511,106.140167 163.610519,104.180801 166.102859,104.170135 
	C209.748947,103.983269 253.396088,104.022224 297.042969,104.050529 
	C302.483856,104.054054 305.827820,106.915268 305.951630,111.388046 
	C306.079132,115.995796 302.584900,119.059341 296.910583,119.062782 
	C253.263687,119.089233 209.616760,119.101234 165.969925,119.053352 
	C158.810669,119.045502 155.928726,114.733315 158.412674,107.509476 
z"/>
<path fill="#0C0B08" opacity="1.000000" stroke="none" 
	d="
M183.807236,156.605286 
	C177.516647,156.602829 171.697266,156.692520 165.882278,156.570786 
	C160.561569,156.459427 157.142761,153.405685 157.123077,149.037231 
	C157.103424,144.673492 160.506653,141.547028 165.823486,141.438797 
	C172.801590,141.296738 179.785446,141.334656 186.765396,141.416489 
	C192.854919,141.487869 195.977722,144.019760 196.116989,148.754242 
	C196.263290,153.727661 193.077393,156.407394 186.773453,156.601089 
	C185.943161,156.626602 185.111420,156.605057 183.807236,156.605286 
z"/>
<path fill="#030302" opacity="1.000000" stroke="none" 
	d="
M352.795380,116.855118 
	C350.678894,117.782021 348.870850,118.911339 347.020691,118.985138 
	C341.045837,119.223457 335.053375,119.170334 329.071716,119.042831 
	C324.201324,118.939018 320.936371,115.694290 321.048248,111.398338 
	C321.155914,107.265320 324.288818,104.190544 328.920319,104.071625 
	C334.734711,103.922340 340.557220,103.948814 346.373535,104.052689 
	C354.163177,104.191803 357.074554,109.698395 352.795380,116.855118 
z"/>
<path fill="#3D99E1" opacity="1.000000" stroke="none" 
	d="
M359.078552,271.201263 
	C353.741730,271.190277 348.404907,271.179291 342.516205,270.806976 
	C340.937042,265.588684 337.803436,263.649384 332.999695,263.718567 
	C329.366486,263.770905 325.729156,263.538269 321.994904,263.097687 
	C317.388397,247.154160 317.467102,231.556641 322.469574,215.869507 
	C364.590668,215.745178 406.252838,215.688095 447.914886,215.727539 
	C455.610199,215.734818 459.257202,219.405823 459.399323,227.066513 
	C459.541473,234.729874 459.453430,242.397888 459.432526,250.063782 
	C459.404114,260.481354 456.118225,263.735809 445.601807,263.740753 
	C420.270813,263.752625 394.939819,263.732758 369.608826,263.753235 
	C362.600586,263.758911 361.326538,264.705444 359.078552,271.201263 
z"/>
<path fill="#020404" opacity="1.000000" stroke="none" 
	d="
M322.093658,263.432465 
	C325.729156,263.538269 329.366486,263.770905 332.999695,263.718567 
	C337.803436,263.649384 340.937042,265.588684 342.058594,270.823730 
	C340.364441,277.297729 338.500732,278.780579 332.277496,278.814301 
	C324.117615,278.858490 315.956177,278.912354 307.797455,278.805542 
	C292.697784,278.607880 282.048218,268.004150 281.862244,252.975449 
	C281.755096,244.317078 281.786682,235.655869 281.851929,226.996674 
	C281.972717,210.958237 292.294037,200.658310 308.640442,200.614456 
	C346.110046,200.513901 383.580139,200.580795 421.050018,200.580612 
	C430.042786,200.580551 439.036774,200.490875 448.028076,200.606308 
	C463.915497,200.810272 474.259460,210.996841 474.594269,226.846954 
	C474.773621,235.336334 474.771576,243.835617 474.595581,252.325134 
	C474.262848,268.373474 463.661743,278.779053 447.667389,278.810852 
	C421.521820,278.862823 395.376007,278.781189 369.230591,278.861267 
	C364.085602,278.877014 360.485016,277.199341 359.221863,271.506165 
	C361.326538,264.705444 362.600586,263.758911 369.608826,263.753235 
	C394.939819,263.732758 420.270813,263.752625 445.601807,263.740753 
	C456.118225,263.735809 459.404114,260.481354 459.432526,250.063782 
	C459.453430,242.397888 459.541473,234.729874 459.399323,227.066513 
	C459.257202,219.405823 455.610199,215.734818 447.914886,215.727539 
	C406.252838,215.688095 364.590668,215.745178 322.009369,215.765533 
	C316.610931,215.748947 312.127838,215.612518 307.653290,215.751114 
	C300.684723,215.966934 297.022827,219.706787 296.942017,226.728729 
	C296.842712,235.355255 296.847717,243.984558 296.941467,252.611221 
	C297.013489,259.239136 300.696808,263.335480 307.198090,263.651703 
	C312.148041,263.892426 317.127380,263.527771 322.093658,263.432465 
z"/>
<path fill="#030301" opacity="1.000000" stroke="none" 
	d="
M471.968628,470.778198 
	C467.015106,477.948425 460.351105,480.965759 452.124756,480.880737 
	C447.963959,480.837738 443.799042,480.975861 439.641846,480.845795 
	C427.399963,480.462769 418.145844,471.351288 418.079987,459.165039 
	C417.936096,432.534027 417.954193,405.901245 418.079559,379.270020 
	C418.128784,368.815369 425.327057,360.634918 435.707489,359.755432 
	C443.130371,359.126556 450.700256,359.149933 458.119110,359.823456 
	C467.934753,360.714478 475.066925,368.393097 475.148865,378.183960 
	C475.378632,405.644958 475.324280,433.110138 475.081329,460.570984 
	C475.052124,463.873291 473.173065,467.159180 471.968628,470.778198 
M433.107117,454.802765 
	C433.014282,464.162476 434.640625,465.825531 443.897980,465.835052 
	C445.715851,465.836945 447.533752,465.836365 449.351624,465.835358 
	C459.154266,465.830048 460.754456,464.047180 460.158417,453.069092 
	C460.173004,429.093201 460.130066,405.117035 460.251740,381.141693 
	C460.275482,376.463776 458.415497,374.406647 453.732513,374.556671 
	C448.908905,374.711212 444.075592,374.655792 439.248383,374.576660 
	C435.127594,374.509155 433.064301,376.332001 433.078918,380.540802 
	C433.163879,405.012054 433.212585,429.483429 433.107117,454.802765 
z"/>
<path fill="#030503" opacity="1.000000" stroke="none" 
	d="
M397.865967,479.193024 
	C394.927460,479.865570 392.349457,480.747986 389.751892,480.809937 
	C381.764282,481.000427 373.767181,480.989960 365.777588,480.845795 
	C356.506866,480.678497 349.956238,474.549316 349.593628,465.302643 
	C349.254608,456.658295 349.244080,447.980255 349.578064,439.335938 
	C349.947021,429.785065 355.845642,423.921722 365.449097,423.540588 
	C373.926605,423.204163 382.439026,423.196259 390.915894,423.539734 
	C400.763336,423.938721 406.757477,430.460236 406.877289,440.361908 
	C406.969940,448.019989 406.850128,455.680420 406.909668,463.339142 
	C406.963287,470.234741 404.377014,475.605255 397.865967,479.193024 
M364.841766,455.930664 
	C364.831421,457.422516 364.987305,458.937927 364.779663,460.401764 
	C364.152954,464.819763 365.966492,466.358063 370.346924,465.958679 
	C374.128510,465.613953 377.966003,465.866058 381.778687,465.882355 
	C392.651642,465.928925 392.651611,465.934540 391.737091,454.018402 
	C391.773560,450.191650 391.753693,446.363251 391.867279,442.538788 
	C391.937469,440.174011 391.341339,438.751465 388.570526,438.792847 
	C381.748932,438.894714 374.923950,438.890625 368.102142,438.798279 
	C365.356964,438.761169 364.726135,440.181427 364.787354,442.539917 
	C364.895233,446.696747 364.892456,450.856415 364.841766,455.930664 
z"/>
<path fill="#030503" opacity="1.000000" stroke="none" 
	d="
M355.711060,413.409851 
	C351.242920,409.778107 349.475067,405.294830 349.474884,400.011719 
	C349.474579,392.185974 349.352936,384.357849 349.504242,376.535034 
	C349.712494,365.768829 355.908081,359.577942 366.689758,359.355133 
	C374.179352,359.200409 381.677216,359.196930 389.166870,359.349121 
	C400.832367,359.586212 406.841949,365.829865 406.891205,377.555420 
	C406.923370,385.214539 407.021149,392.876678 406.857300,400.532501 
	C406.656097,409.933960 400.146881,416.549500 390.769623,416.778717 
	C382.449310,416.982117 374.104523,417.115326 365.802429,416.676697 
	C362.488464,416.501587 359.259949,414.709503 355.711060,413.409851 
M391.777710,390.022278 
	C391.805237,388.856720 391.852203,387.691284 391.857300,386.525635 
	C391.908661,374.769745 391.905884,374.686798 380.090240,374.809448 
	C375.171722,374.860474 367.977539,373.528107 365.920807,376.102478 
	C363.368744,379.296936 365.070923,385.890167 364.841400,391.930847 
	C364.831055,393.420593 364.989594,394.934662 364.778778,396.395508 
	C364.138184,400.835541 366.006683,402.312927 370.350128,401.926270 
	C374.127625,401.589996 377.958801,401.856567 381.766235,401.856598 
	C392.544098,401.856628 392.544098,401.856628 391.777710,390.022278 
z"/>
<path fill="#020402" opacity="1.000000" stroke="none" 
	d="
M331.165344,361.597961 
	C336.878479,365.256378 339.182312,370.227081 339.081543,376.573608 
	C338.954651,384.563965 339.127258,392.558777 339.025665,400.549835 
	C338.909088,409.717377 332.625000,416.437042 323.503113,416.741272 
	C314.854431,417.029755 306.182953,417.003967 297.531982,416.754120 
	C288.318756,416.487976 282.014923,409.937317 281.879395,400.736176 
	C281.751862,392.079865 281.745636,383.417999 281.902374,374.762512 
	C282.029694,367.733704 286.674438,360.744049 293.294159,360.276337 
	C304.846619,359.460114 316.503967,360.097809 328.116394,360.221191 
	C329.032013,360.230927 329.939789,360.980408 331.165344,361.597961 
M323.944305,390.047180 
	C323.959137,388.723877 323.984863,387.400635 323.987061,386.077301 
	C324.005859,374.760986 324.004242,374.706940 312.483978,374.786377 
	C307.559509,374.820343 302.637024,375.132538 297.713623,375.318298 
	C297.507111,380.540009 297.300598,385.761688 296.981750,391.901245 
	C296.966949,393.558105 297.113342,395.235474 296.905334,396.867706 
	C296.404541,400.797852 297.965790,402.224487 301.919800,401.919983 
	C305.873322,401.615509 309.870880,401.939789 313.845215,401.837219 
	C324.726227,401.556427 324.276398,404.301819 323.944305,390.047180 
z"/>
<path fill="#020302" opacity="1.000000" stroke="none" 
	d="
M305.448120,480.984406 
	C303.327942,481.000092 301.674286,480.902100 300.020355,480.897095 
	C288.061279,480.860870 281.865967,474.738953 281.844177,462.906372 
	C281.841736,461.579590 281.863251,460.252716 281.787781,458.480347 
	C281.745575,452.039520 281.741821,446.043365 281.843903,440.049072 
	C282.006927,430.477325 287.600342,424.077820 297.013428,423.627808 
	C305.985962,423.198914 315.012756,423.212646 323.984680,423.657684 
	C333.142059,424.111938 338.877106,430.516693 339.014465,439.701172 
	C339.139008,448.029236 339.133423,456.361877 339.021118,464.690247 
	C338.895172,474.028839 332.332062,480.596680 322.906494,480.846802 
	C317.245911,480.997040 311.578766,480.899811 305.448120,480.984406 
M296.977203,455.902527 
	C296.962769,457.225830 297.101257,458.572083 296.906494,459.868286 
	C296.194946,464.603485 297.993286,466.485229 302.873322,465.960876 
	C306.471710,465.574249 310.146332,465.954102 313.783661,465.862305 
	C324.290375,465.597046 324.289307,468.425751 323.998596,454.054504 
	C323.998596,449.156891 323.998596,444.259277 323.998596,438.804413 
	C319.687317,438.804413 316.088287,438.737579 312.492737,438.820648 
	C307.571503,438.934326 302.652863,439.161957 297.733154,439.340759 
	C297.518555,444.555420 297.303986,449.770050 296.977203,455.902527 
z"/>
<path fill="#020302" opacity="1.000000" stroke="none" 
	d="
M364.359863,349.242920 
	C355.028046,347.823944 349.835144,342.337097 349.604980,333.504364 
	C349.379791,324.862335 349.341980,316.202332 349.628784,307.563690 
	C349.932800,298.405823 356.544556,292.195923 365.775970,292.065002 
	C374.089996,291.947052 382.408783,291.932983 390.722229,292.069977 
	C400.009674,292.222992 406.653015,298.845764 406.849060,308.218536 
	C407.022919,316.530609 407.036194,324.852600 406.846283,333.163940 
	C406.628510,342.696228 400.335541,349.014496 390.756836,349.248322 
	C382.114319,349.459290 373.462250,349.280365 364.359863,349.242920 
M364.841461,324.923645 
	C364.829987,326.088745 364.956360,327.274841 364.782928,328.415314 
	C364.074036,333.077087 366.076019,334.615997 370.624420,334.214355 
	C374.588654,333.864288 378.608307,334.141541 382.603455,334.141541 
	C392.487427,334.141510 392.487427,334.141510 391.775391,323.041138 
	C391.702606,318.912506 391.565704,314.783691 391.579285,310.655334 
	C391.588562,307.834625 390.219025,306.987274 387.560211,307.038330 
	C381.278839,307.158936 374.990509,307.191681 368.711121,307.026550 
	C365.628906,306.945404 364.623901,308.189087 364.754578,311.121735 
	C364.945770,315.412628 364.891296,319.714447 364.841461,324.923645 
z"/>
<path fill="#010201" opacity="1.000000" stroke="none" 
	d="
M310.000916,349.317627 
	C305.169495,349.288544 300.825958,349.447449 296.507263,349.189789 
	C288.316650,348.701202 282.118958,342.450684 281.927887,334.290192 
	C281.717285,325.295776 281.723938,316.289337 281.919586,307.294312 
	C282.099365,299.027954 288.558533,292.392700 296.854431,292.132477 
	C305.845032,291.850464 314.857208,291.860535 323.848938,292.122284 
	C332.378754,292.370636 338.835876,299.077423 338.995697,307.640137 
	C339.160492,316.469849 339.179688,325.308533 338.981506,334.136993 
	C338.798218,342.301422 332.617828,348.670258 324.493622,349.173340 
	C319.843933,349.461273 315.165466,349.284882 310.000916,349.317627 
M323.948029,323.053558 
	C323.964355,319.083618 323.860931,315.108368 324.037079,311.145508 
	C324.164978,308.267822 323.334900,306.919800 320.168762,307.009583 
	C313.722382,307.192322 307.263733,307.189026 300.817108,307.010406 
	C297.707458,306.924225 296.750977,308.163910 296.891754,311.094818 
	C297.097870,315.385956 297.043915,319.689545 296.987183,324.900726 
	C296.971649,326.066986 297.092133,327.254181 296.916779,328.395874 
	C296.208527,333.006409 298.091095,334.655243 302.699463,334.215149 
	C306.497620,333.852417 310.358063,334.141205 314.190887,334.141205 
	C324.347229,334.141205 324.347229,334.141174 323.948029,323.053558 
z"/>
<path fill="#030201" opacity="1.000000" stroke="none" 
	d="
M418.048218,307.446167 
	C419.772980,297.063202 425.490570,292.098999 435.379089,292.047485 
	C443.196106,292.006805 451.014465,291.963959 458.830505,292.059814 
	C468.589691,292.179474 475.080292,298.549011 475.255951,308.290527 
	C475.405823,316.604034 475.415375,324.924744 475.256378,333.237885 
	C475.073151,342.817200 468.827789,349.079376 459.229156,349.273682 
	C450.750183,349.445251 442.261047,349.464020 433.783478,349.258270 
	C424.653931,349.036743 418.220490,342.470551 418.067749,333.341766 
	C417.925842,324.861633 418.037079,316.377228 418.048218,307.446167 
M433.128448,324.871246 
	C433.128448,327.804688 433.128448,330.738159 433.128448,333.814178 
	C442.414917,333.814178 451.210358,333.814178 459.971497,333.814178 
	C459.971497,330.252319 459.971497,327.120636 460.157440,323.070038 
	C460.157440,317.830109 460.157440,312.590179 460.157440,307.371155 
	C450.794342,307.371155 442.219208,307.371155 433.297424,307.371155 
	C433.297424,313.090118 433.297424,318.526520 433.128448,324.871246 
z"/>
<path fill="#040200" opacity="1.000000" stroke="none" 
	d="
M105.730011,403.439880 
	C107.345528,405.281555 108.633690,406.989624 110.269844,408.243683 
	C111.953598,409.534210 114.219002,410.104553 115.798454,411.484009 
	C118.658310,413.981598 119.024399,417.220215 117.134789,420.508270 
	C115.221565,423.837402 112.269226,424.803741 108.596375,423.799072 
	C105.738739,423.017426 102.887215,421.883942 99.986717,421.718689 
	C98.383560,421.627350 96.685234,423.206421 95.029808,424.032501 
	C96.091042,425.687317 96.798882,427.866516 98.295578,428.875183 
	C100.591537,430.422424 103.427422,431.171173 106.039192,432.246643 
	C114.337051,435.663513 119.360115,441.636230 119.633972,450.776398 
	C119.890320,459.332184 117.053642,466.423798 108.841942,470.569275 
	C107.740761,471.125183 106.832123,472.632477 106.427452,473.890045 
	C105.262619,477.510040 102.849007,479.633545 99.193451,479.725281 
	C95.534462,479.817078 93.145981,477.754944 91.668236,474.261108 
	C91.006844,472.697418 89.258720,471.544525 87.884590,470.341309 
	C85.062340,467.870209 81.540771,465.925873 79.455025,462.957947 
	C77.121948,459.638092 78.232758,455.771942 81.528984,453.213562 
	C84.791374,450.681396 87.815109,451.531738 90.943985,454.134430 
	C92.995880,455.841248 95.745071,457.402710 98.290665,457.595734 
	C100.200645,457.740509 103.739243,455.830505 103.958351,454.429504 
	C104.312706,452.163727 103.200554,448.825531 101.493507,447.290253 
	C99.273430,445.293640 95.882706,444.575989 92.965622,443.381622 
	C86.123863,440.580322 80.767181,436.473907 79.965828,428.462738 
	C79.131233,420.119232 81.618103,413.396332 89.412048,409.194946 
	C90.357819,408.685089 91.055763,407.298218 91.408913,406.173462 
	C93.851822,398.393188 99.869598,397.057983 105.730011,403.439880 
z"/>
<path fill="#1E80CC" opacity="1.000000" stroke="none" 
	d="
M321.994904,263.097687 
	C317.127380,263.527771 312.148041,263.892426 307.198090,263.651703 
	C300.696808,263.335480 297.013489,259.239136 296.941467,252.611221 
	C296.847717,243.984558 296.842712,235.355255 296.942017,226.728729 
	C297.022827,219.706787 300.684723,215.966934 307.653290,215.751114 
	C312.127838,215.612518 316.610931,215.748947 321.550385,215.866058 
	C317.467102,231.556641 317.388397,247.154160 321.994904,263.097687 
z"/>
<path fill="#FF9811" opacity="1.000000" stroke="none" 
	d="
M433.273529,453.954742 
	C433.212585,429.483429 433.163879,405.012054 433.078918,380.540802 
	C433.064301,376.332001 435.127594,374.509155 439.248383,374.576660 
	C444.075592,374.655792 448.908905,374.711212 453.732513,374.556671 
	C458.415497,374.406647 460.275482,376.463776 460.251740,381.141693 
	C460.130066,405.117035 460.173004,429.093201 459.660034,453.602905 
	C450.532257,454.076050 441.902893,454.015381 433.273529,453.954742 
z"/>
<path fill="#E58303" opacity="1.000000" stroke="none" 
	d="
M433.190308,454.378754 
	C441.902893,454.015381 450.532257,454.076050 459.572571,454.064026 
	C460.754456,464.047180 459.154266,465.830048 449.351624,465.835358 
	C447.533752,465.836365 445.715851,465.836945 443.897980,465.835052 
	C434.640625,465.825531 433.014282,464.162476 433.190308,454.378754 
z"/>
<path fill="#317F46" opacity="1.000000" stroke="none" 
	d="
M364.936035,455.014893 
	C364.892456,450.856415 364.895233,446.696747 364.787354,442.539917 
	C364.726135,440.181427 365.356964,438.761169 368.102142,438.798279 
	C374.923950,438.890625 381.748932,438.894714 388.570526,438.792847 
	C391.341339,438.751465 391.937469,440.174011 391.867279,442.538788 
	C391.753693,446.363251 391.773560,450.191650 391.227417,454.494507 
	C382.123840,454.985382 373.529907,455.000153 364.936035,455.014893 
z"/>
<path fill="#2A6E3C" opacity="1.000000" stroke="none" 
	d="
M364.888885,455.472778 
	C373.529907,455.000153 382.123840,454.985382 391.151733,454.950867 
	C392.651611,465.934540 392.651642,465.928925 381.778687,465.882355 
	C377.966003,465.866058 374.128510,465.613953 370.346924,465.958679 
	C365.966492,466.358063 364.152954,464.819763 364.779663,460.401764 
	C364.987305,458.937927 364.831421,457.422516 364.888885,455.472778 
z"/>
<path fill="#317F46" opacity="1.000000" stroke="none" 
	d="
M364.935516,391.015350 
	C365.070923,385.890167 363.368744,379.296936 365.920807,376.102478 
	C367.977539,373.528107 375.171722,374.860474 380.090240,374.809448 
	C391.905884,374.686798 391.908661,374.769745 391.857300,386.525635 
	C391.852203,387.691284 391.805237,388.856720 391.266724,390.497498 
	C382.149017,390.986938 373.542267,391.001129 364.935516,391.015350 
z"/>
<path fill="#2A6E3C" opacity="1.000000" stroke="none" 
	d="
M364.888458,391.473083 
	C373.542267,391.001129 382.149017,390.986938 391.194031,390.954956 
	C392.544098,401.856628 392.544098,401.856628 381.766235,401.856598 
	C377.958801,401.856567 374.127625,401.589996 370.350128,401.926270 
	C366.006683,402.312927 364.138184,400.835541 364.778778,396.395508 
	C364.989594,394.934662 364.831055,393.420593 364.888458,391.473083 
z"/>
<path fill="#317F46" opacity="1.000000" stroke="none" 
	d="
M297.094086,390.983398 
	C297.300598,385.761688 297.507111,380.540009 297.713623,375.318298 
	C302.637024,375.132538 307.559509,374.820343 312.483978,374.786377 
	C324.004242,374.706940 324.005859,374.760986 323.987061,386.077301 
	C323.984863,387.400635 323.959137,388.723877 323.436279,390.519440 
	C314.316895,390.988922 305.705475,390.986145 297.094086,390.983398 
z"/>
<path fill="#2B703D" opacity="1.000000" stroke="none" 
	d="
M297.037903,391.442322 
	C305.705475,390.986145 314.316895,390.988922 323.384460,390.982605 
	C324.276398,404.301819 324.726227,401.556427 313.845215,401.837219 
	C309.870880,401.939789 305.873322,401.615509 301.919800,401.919983 
	C297.965790,402.224487 296.404541,400.797852 296.905334,396.867706 
	C297.113342,395.235474 296.966949,393.558105 297.037903,391.442322 
z"/>
<path fill="#317F46" opacity="1.000000" stroke="none" 
	d="
M297.089417,454.984711 
	C297.303986,449.770050 297.518555,444.555420 297.733154,439.340759 
	C302.652863,439.161957 307.571503,438.934326 312.492737,438.820648 
	C316.088287,438.737579 319.687317,438.804413 323.998596,438.804413 
	C323.998596,444.259277 323.998596,449.156891 323.485870,454.524658 
	C314.345215,454.991455 305.717316,454.988068 297.089417,454.984711 
z"/>
<path fill="#2B703D" opacity="1.000000" stroke="none" 
	d="
M297.033295,455.443604 
	C305.717316,454.988068 314.345215,454.991455 323.433044,454.988434 
	C324.289307,468.425751 324.290375,465.597046 313.783661,465.862305 
	C310.146332,465.954102 306.471710,465.574249 302.873322,465.960876 
	C297.993286,466.485229 296.194946,464.603485 296.906494,459.868286 
	C297.101257,458.572083 296.962769,457.225830 297.033295,455.443604 
z"/>
<path fill="#317F46" opacity="1.000000" stroke="none" 
	d="
M364.941559,324.011597 
	C364.891296,319.714447 364.945770,315.412628 364.754578,311.121735 
	C364.623901,308.189087 365.628906,306.945404 368.711121,307.026550 
	C374.990509,307.191681 381.278839,307.158936 387.560211,307.038330 
	C390.219025,306.987274 391.588562,307.834625 391.579285,310.655334 
	C391.565704,314.783691 391.702606,318.912506 391.261658,323.507690 
	C382.145813,323.986694 373.543701,323.999146 364.941559,324.011597 
z"/>
<path fill="#2B703D" opacity="1.000000" stroke="none" 
	d="
M364.891510,324.467621 
	C373.543701,323.999146 382.145813,323.986694 391.185699,323.959351 
	C392.487427,334.141510 392.487427,334.141510 382.603455,334.141541 
	C378.608307,334.141541 374.588654,333.864288 370.624420,334.214355 
	C366.076019,334.615997 364.074036,333.077087 364.782928,328.415314 
	C364.956360,327.274841 364.829987,326.088745 364.891510,324.467621 
z"/>
<path fill="#317E45" opacity="1.000000" stroke="none" 
	d="
M297.100769,323.987823 
	C297.043915,319.689545 297.097870,315.385956 296.891754,311.094818 
	C296.750977,308.163910 297.707458,306.924225 300.817108,307.010406 
	C307.263733,307.189026 313.722382,307.192322 320.168762,307.009583 
	C323.334900,306.919800 324.164978,308.267822 324.037079,311.145508 
	C323.860931,315.108368 323.964355,319.083618 323.435638,323.523010 
	C314.315765,323.990906 305.708252,323.989380 297.100769,323.987823 
z"/>
<path fill="#2C733F" opacity="1.000000" stroke="none" 
	d="
M297.043976,324.444275 
	C305.708252,323.989380 314.315765,323.990906 323.379089,323.986694 
	C324.347229,334.141174 324.347229,334.141205 314.190887,334.141205 
	C310.358063,334.141205 306.497620,333.852417 302.699463,334.215149 
	C298.091095,334.655243 296.208527,333.006409 296.916779,328.395874 
	C297.092133,327.254181 296.971649,326.066986 297.043976,324.444275 
z"/>
<path fill="#FF9811" opacity="1.000000" stroke="none" 
	d="
M433.297424,323.962921 
	C433.297424,318.526520 433.297424,313.090118 433.297424,307.371155 
	C442.219208,307.371155 450.794342,307.371155 460.157440,307.371155 
	C460.157440,312.590179 460.157440,317.830109 459.597717,323.531799 
	C450.457794,323.983368 441.877594,323.973145 433.297424,323.962921 
z"/>
<path fill="#EA8602" opacity="1.000000" stroke="none" 
	d="
M433.212952,324.417084 
	C441.877594,323.973145 450.457794,323.983368 459.504730,323.991272 
	C459.971497,327.120636 459.971497,330.252319 459.971497,333.814178 
	C451.210358,333.814178 442.414917,333.814178 433.128448,333.814178 
	C433.128448,330.738159 433.128448,327.804688 433.212952,324.417084 
z"/>
</svg>